<?xml version="1.0" encoding="UTF-8"?>
<svg xmlns="http://www.w3.org/2000/svg" height="100%" width="100%">
   <g transform="translate(50,600)">
      <rect x="20"
            y="-457.4766355140187"
            height="457.4766355140187"
            width="98.44"
            fill="blue"/>
      <rect x="20"
            y="-550"
            height="92.5233644859813"
            width="98.44"
            fill="red"/>
      <rect x="138.44"
            y="-392.5403225806452"
            height="392.5403225806452"
            width="114.08"
            fill="blue"/>
      <rect x="138.44"
            y="-550"
            height="157.45967741935485"
            width="114.08"
            fill="red"/>
      <rect x="272.52"
            y="-331.9642857142857"
            height="331.9642857142857"
            width="128.8"
            fill="blue"/>
      <rect x="272.52"
            y="-550"
            height="218.03571428571428"
            width="128.8"
            fill="red"/>
      <rect x="421.32"
            y="-320.83333333333337"
            height="320.83333333333337"
            width="115.92"
            fill="blue"/>
      <rect x="421.32"
            y="-550"
            height="229.16666666666669"
            width="115.92"
            fill="red"/>
      <rect x="557.24"
            y="-382.94392523364485"
            height="382.94392523364485"
            width="98.44"
            fill="blue"/>
      <rect x="557.24"
            y="-550"
            height="167.05607476635512"
            width="98.44"
            fill="red"/>
      <rect x="675.6800000000001"
            y="-346.5753424657534"
            height="346.5753424657534"
            width="100.74000000000001"
            fill="blue"/>
      <rect x="675.6800000000001"
            y="-550"
            height="203.4246575342466"
            width="100.74000000000001"
            fill="red"/>
      <rect x="796.4200000000001"
            y="-366.66666666666663"
            height="366.66666666666663"
            width="103.5"
            fill="blue"/>
      <rect x="796.4200000000001"
            y="-550"
            height="183.33333333333331"
            width="103.5"
            fill="red"/>
      <line x1="0"
            y1="0"
            x2="900"
            y2="0"
            stroke="black"
            stroke-width="1"/>
      <line x1="0"
            y1="0"
            x2=""
            y2="-550"
            stroke="black"
            stroke-width="1"/>
   </g>
</svg>
