<?xml version="1.0" encoding="UTF-8"?>
<svg xmlns="http://www.w3.org/2000/svg" width="2000" height="75000">
   <g transform="translate(100,700)">
      <rect x="5" y="-240" height="240" width="70" style="fill:blue"/>
      <rect x="75" y="-160" height="160" width="70" style="fill:red"/>
      <rect x="155" y="-220" height="220" width="70" style="fill:blue"/>
      <rect x="225" y="-0" height="0" width="70" style="fill:red"/>
      <rect x="305" y="-330" height="330" width="70" style="fill:blue"/>
      <rect x="375" y="-0" height="0" width="70" style="fill:red"/>
      <rect x="455" y="-50" height="50" width="70" style="fill:blue"/>
      <rect x="525" y="-60" height="60" width="70" style="fill:red"/>
      <rect x="605" y="-100" height="100" width="70" style="fill:blue"/>
      <rect x="675" y="-120" height="120" width="70" style="fill:red"/>
      <rect x="755" y="-30" height="30" width="70" style="fill:blue"/>
      <rect x="825" y="-100" height="100" width="70" style="fill:red"/>
      <rect x="905" y="-650" height="650" width="70" style="fill:blue"/>
      <rect x="975" y="-0" height="0" width="70" style="fill:red"/>
      <line x1="0"
            y1="0"
            x2="1070"
            y2="0"
            stroke-width="1"
            stroke="black"/>
      <line x1="0"
            y1="0"
            x2="0"
            y2="-670"
            stroke-width="1"
            stroke="black"/>
      <line x1="0"
            y1="-650"
            x2="1070"
            y2="-650"
            stroke="gray"
            stroke-width="1"
            stroke-dasharray="10, 5"/>
      <text x="-20" y="-645" text-anchor="middle">65</text>
      <line x1="0"
            y1="-600"
            x2="1070"
            y2="-600"
            stroke="gray"
            stroke-width="2"
            stroke-dasharray="10, 5"/>
      <text x="-20" y="-595" text-anchor="middle">60</text>
      <line x1="0"
            y1="-550"
            x2="1070"
            y2="-550"
            stroke="gray"
            stroke-width="1"
            stroke-dasharray="10, 5"/>
      <text x="-20" y="-545" text-anchor="middle">55</text>
      <line x1="0"
            y1="-500"
            x2="1070"
            y2="-500"
            stroke="gray"
            stroke-width="2"
            stroke-dasharray="10, 5"/>
      <text x="-20" y="-495" text-anchor="middle">50</text>
      <line x1="0"
            y1="-450"
            x2="1070"
            y2="-450"
            stroke="gray"
            stroke-width="1"
            stroke-dasharray="10, 5"/>
      <text x="-20" y="-445" text-anchor="middle">45</text>
      <line x1="0"
            y1="-400"
            x2="1070"
            y2="-400"
            stroke="gray"
            stroke-width="2"
            stroke-dasharray="10, 5"/>
      <text x="-20" y="-395" text-anchor="middle">40</text>
      <line x1="0"
            y1="-350"
            x2="1070"
            y2="-350"
            stroke="gray"
            stroke-width="1"
            stroke-dasharray="10, 5"/>
      <text x="-20" y="-345" text-anchor="middle">35</text>
      <line x1="0"
            y1="-300"
            x2="1070"
            y2="-300"
            stroke="gray"
            stroke-width="2"
            stroke-dasharray="10, 5"/>
      <text x="-20" y="-295" text-anchor="middle">30</text>
      <line x1="0"
            y1="-250"
            x2="1070"
            y2="-250"
            stroke="gray"
            stroke-width="1"
            stroke-dasharray="10, 5"/>
      <text x="-20" y="-245" text-anchor="middle">25</text>
      <line x1="0"
            y1="-200"
            x2="1070"
            y2="-200"
            stroke="gray"
            stroke-width="2"
            stroke-dasharray="10, 5"/>
      <text x="-20" y="-195" text-anchor="middle">20</text>
      <line x1="0"
            y1="-150"
            x2="1070"
            y2="-150"
            stroke="gray"
            stroke-width="1"
            stroke-dasharray="10, 5"/>
      <text x="-20" y="-145" text-anchor="middle">15</text>
      <line x1="0"
            y1="-100"
            x2="1070"
            y2="-100"
            stroke="gray"
            stroke-width="2"
            stroke-dasharray="10, 5"/>
      <text x="-20" y="-95" text-anchor="middle">10</text>
      <line x1="0"
            y1="-50"
            x2="1070"
            y2="-50"
            stroke="gray"
            stroke-width="1"
            stroke-dasharray="10, 5"/>
      <text x="-20" y="-45" text-anchor="middle">5</text>
      <text x="75" y="20" text-anchor="middle">1919</text>
      <line x1="150"
            y1="0"
            x2="150"
            y2="-670"
            stroke="black"
            stroke-width="1"/>
      <text x="225" y="20" text-anchor="middle">1920</text>
      <line x1="300"
            y1="0"
            x2="300"
            y2="-670"
            stroke="black"
            stroke-width="1"/>
      <text x="375" y="20" text-anchor="middle">1921</text>
      <line x1="450"
            y1="0"
            x2="450"
            y2="-670"
            stroke="black"
            stroke-width="1"/>
      <text x="525" y="20" text-anchor="middle">1922</text>
      <line x1="600"
            y1="0"
            x2="600"
            y2="-670"
            stroke="black"
            stroke-width="1"/>
      <text x="675" y="20" text-anchor="middle">1923</text>
      <line x1="750"
            y1="0"
            x2="750"
            y2="-670"
            stroke="black"
            stroke-width="1"/>
      <text x="825" y="20" text-anchor="middle">1924</text>
      <line x1="900"
            y1="0"
            x2="900"
            y2="-670"
            stroke="black"
            stroke-width="1"/>
      <text x="975" y="20" text-anchor="middle">1925</text>
      <line x1="1050"
            y1="0"
            x2="1050"
            y2="-670"
            stroke="black"
            stroke-width="1"/>
   </g>
</svg>
