<?xml version="1.0" encoding="UTF-8"?>
<svg xmlns="http://www.w3.org/2000/svg" width="1100" height="700">
   <g transform="translate(100,650)">
      <rect x="140"
            y="-600"
            width="140"
            height="600"
            style="fill:rgb(226,226,226)"/>
      <rect x="420"
            y="-600"
            width="140"
            height="600"
            style="fill:rgb(226,226,226)"/>
      <rect x="700"
            y="-600"
            width="140"
            height="600"
            style="fill:rgb(226,226,226)"/>
      <line x1="0"
            y1="0"
            x2="1000"
            y2="0"
            stroke="black"
            stroke-width="2"/>
      <line x1="0"
            y1="0"
            x2="0"
            y2="-620"
            stroke="black"
            stroke-width="2"/>
      <line x1="0"
            y1="-600"
            x2="1000"
            y2="-600"
            stroke="gray"
            stroke-width="2"
            stroke-dasharray="10, 5"/>
      <text x="-20" y="-595" text-anchor="middle">60</text>
      <line x1="0"
            y1="-550"
            x2="1000"
            y2="-550"
            stroke="gray"
            stroke-width="1"
            stroke-dasharray="10, 5"/>
      <text x="-20" y="-545" text-anchor="middle">55</text>
      <line x1="0"
            y1="-500"
            x2="1000"
            y2="-500"
            stroke="gray"
            stroke-width="2"
            stroke-dasharray="10, 5"/>
      <text x="-20" y="-495" text-anchor="middle">50</text>
      <line x1="0"
            y1="-450"
            x2="1000"
            y2="-450"
            stroke="gray"
            stroke-width="1"
            stroke-dasharray="10, 5"/>
      <text x="-20" y="-445" text-anchor="middle">45</text>
      <line x1="0"
            y1="-400"
            x2="1000"
            y2="-400"
            stroke="gray"
            stroke-width="2"
            stroke-dasharray="10, 5"/>
      <text x="-20" y="-395" text-anchor="middle">40</text>
      <line x1="0"
            y1="-350"
            x2="1000"
            y2="-350"
            stroke="gray"
            stroke-width="1"
            stroke-dasharray="10, 5"/>
      <text x="-20" y="-345" text-anchor="middle">35</text>
      <line x1="0"
            y1="-300"
            x2="1000"
            y2="-300"
            stroke="gray"
            stroke-width="2"
            stroke-dasharray="10, 5"/>
      <text x="-20" y="-295" text-anchor="middle">30</text>
      <line x1="0"
            y1="-250"
            x2="1000"
            y2="-250"
            stroke="gray"
            stroke-width="1"
            stroke-dasharray="10, 5"/>
      <text x="-20" y="-245" text-anchor="middle">25</text>
      <line x1="0"
            y1="-200"
            x2="1000"
            y2="-200"
            stroke="gray"
            stroke-width="2"
            stroke-dasharray="10, 5"/>
      <text x="-20" y="-195" text-anchor="middle">20</text>
      <line x1="0"
            y1="-150"
            x2="1000"
            y2="-150"
            stroke="gray"
            stroke-width="1"
            stroke-dasharray="10, 5"/>
      <text x="-20" y="-145" text-anchor="middle">15</text>
      <line x1="0"
            y1="-100"
            x2="1000"
            y2="-100"
            stroke="gray"
            stroke-width="2"
            stroke-dasharray="10, 5"/>
      <text x="-20" y="-95" text-anchor="middle">10</text>
      <line x1="0"
            y1="-50"
            x2="1000"
            y2="-50"
            stroke="gray"
            stroke-width="1"
            stroke-dasharray="10, 5"/>
      <text x="-20" y="-45" text-anchor="middle">5</text>
      <text x="70" y="20" text-anchor="middle">1919</text>
      <line x1="70"
            y1="0"
            x2="70"
            y2="-10"
            stroke="black"
            stroke-width="1"/>
      <line x1="140"
            y1="0"
            x2="140"
            y2="-620"
            stroke="black"
            stroke-width="1"/>
      <line x1="210"
            y1="0"
            x2="210"
            y2="-10"
            stroke="black"
            stroke-width="1"/>
      <text x="210" y="20" text-anchor="middle">1920</text>
      <line x1="280"
            y1="0"
            x2="280"
            y2="-620"
            stroke="black"
            stroke-width="1"/>
      <line x1="350"
            y1="0"
            x2="350"
            y2="-10"
            stroke="black"
            stroke-width="1"/>
      <text x="350" y="20" text-anchor="middle">1921</text>
      <line x1="420"
            y1="0"
            x2="420"
            y2="-620"
            stroke="black"
            stroke-width="1"/>
      <line x1="490"
            y1="0"
            x2="490"
            y2="-10"
            stroke="black"
            stroke-width="1"/>
      <text x="490" y="20" text-anchor="middle">1922</text>
      <line x1="560"
            y1="0"
            x2="560"
            y2="-620"
            stroke="black"
            stroke-width="1"/>
      <line x1="630"
            y1="0"
            x2="630"
            y2="-10"
            stroke="black"
            stroke-width="1"/>
      <text x="630" y="20" text-anchor="middle">1923</text>
      <line x1="700"
            y1="0"
            x2="700"
            y2="-620"
            stroke="black"
            stroke-width="1"/>
      <line x1="770"
            y1="0"
            x2="770"
            y2="-10"
            stroke="black"
            stroke-width="1"/>
      <text x="770" y="20" text-anchor="middle">1924</text>
      <line x1="840"
            y1="0"
            x2="840"
            y2="-620"
            stroke="black"
            stroke-width="1"/>
      <line x1="910"
            y1="0"
            x2="910"
            y2="-10"
            stroke="black"
            stroke-width="1"/>
      <text x="910" y="20" text-anchor="middle">1925</text>
      <line x1="980"
            y1="0"
            x2="980"
            y2="-620"
            stroke="black"
            stroke-width="1"/>
      <circle cx="70" cy="-100" r="6" style="fill:blue"/>
      <circle cx="140" cy="-130" r="6" style="fill:blue"/>
      <circle cx="70" cy="-0" r="6" style="fill:red"/>
      <circle cx="140" cy="-160" r="6" style="fill:red"/>
      <circle cx="210" cy="-90" r="6" style="fill:blue"/>
      <circle cx="280" cy="-10" r="6" style="fill:blue"/>
      <circle cx="210" cy="-0" r="6" style="fill:red"/>
      <circle cx="280" cy="-0" r="6" style="fill:red"/>
      <circle cx="350" cy="-280" r="6" style="fill:blue"/>
      <circle cx="420" cy="-40" r="6" style="fill:blue"/>
      <circle cx="350" cy="-0" r="6" style="fill:red"/>
      <circle cx="420" cy="-0" r="6" style="fill:red"/>
      <circle cx="490" cy="-20" r="6" style="fill:blue"/>
      <circle cx="560" cy="-30" r="6" style="fill:blue"/>
      <circle cx="490" cy="-50" r="6" style="fill:red"/>
      <circle cx="560" cy="-10" r="6" style="fill:red"/>
      <circle cx="630" cy="-70" r="6" style="fill:blue"/>
      <circle cx="700" cy="-30" r="6" style="fill:blue"/>
      <circle cx="630" cy="-120" r="6" style="fill:red"/>
      <circle cx="700" cy="-0" r="6" style="fill:red"/>
      <circle cx="770" cy="-30" r="6" style="fill:blue"/>
      <circle cx="840" cy="-0" r="6" style="fill:blue"/>
      <circle cx="770" cy="-0" r="6" style="fill:red"/>
      <circle cx="840" cy="-100" r="6" style="fill:red"/>
      <circle cx="910" cy="-610" r="6" style="fill:blue"/>
      <circle cx="980" cy="-40" r="6" style="fill:blue"/>
      <circle cx="910" cy="-0" r="6" style="fill:red"/>
      <circle cx="980" cy="-0" r="6" style="fill:red"/>
   </g>
</svg>
